<?xml version="1.0" encoding="UTF-8"?>
<svg xmlns="http://www.w3.org/2000/svg" xmlns:xlink="http://www.w3.org/1999/xlink" width="100px" height="111px" viewBox="0 0 100 111" version="1.1">
<defs>
<clipPath id="clip1">
  <path d="M 0.101562 0.046875 L 100 0.046875 L 100 111 L 0.101562 111 Z M 0.101562 0.046875 "/>
</clipPath>
</defs>
<g id="surface1">
<g clip-path="url(#clip1)" clip-rule="nonzero">
<path style=" stroke:none;fill-rule:nonzero;fill:rgb(64.705882%,80.784314%,91.372549%);fill-opacity:1;" d="M 52.328125 111.089844 L 31.09375 111.089844 C 28.910156 111.089844 27.363281 110.609375 26.453125 109.652344 C 25.527344 108.691406 25.066406 107.164062 25.066406 105.070312 L 25.066406 88.714844 L 5.269531 62.285156 C 3.171875 59.492188 1.773438 57.050781 1.078125 54.957031 C 0.378906 52.863281 0.0273438 49.679688 0.0273438 45.402344 L 0.0273438 20.28125 C 0.0273438 19.148438 0.183594 18.1875 0.5 17.402344 C 0.796875 16.617188 1.25 15.964844 1.863281 15.441406 L 18.773438 1.175781 C 19.210938 0.828125 19.804688 0.539062 20.554688 0.3125 C 21.289062 0.105469 22.09375 0 22.96875 0 L 43.152344 0 C 45.25 0 46.78125 0.480469 47.742188 1.4375 C 48.703125 2.398438 49.183594 3.925781 49.183594 6.019531 L 49.183594 27.476562 C 49.183594 28.261719 49.226562 29.046875 49.316406 29.832031 C 49.402344 30.617188 49.664062 31.445312 50.101562 32.320312 L 51.675781 34.542969 L 51.675781 20.28125 C 51.675781 19.148438 51.832031 18.1875 52.144531 17.402344 C 52.445312 16.617188 52.898438 15.964844 53.507812 15.441406 L 70.417969 1.175781 C 70.855469 0.828125 71.449219 0.539062 72.203125 0.3125 C 72.9375 0.105469 73.742188 0 74.613281 0 L 94.144531 0 C 96.242188 0 97.773438 0.480469 98.734375 1.4375 C 99.695312 2.398438 100.175781 3.925781 100.175781 6.019531 L 100.175781 31.140625 C 100.175781 35.417969 99.824219 38.601562 99.125 40.695312 C 98.425781 42.789062 97.03125 45.230469 94.933594 48.019531 L 75.269531 74.582031 L 75.269531 90.808594 C 75.269531 91.941406 75.121094 92.902344 74.824219 93.6875 C 74.507812 94.472656 74.046875 95.125 73.433594 95.648438 L 56.394531 109.78125 C 56.042969 110.128906 55.503906 110.4375 54.769531 110.699219 C 54.015625 110.960938 53.203125 111.089844 52.328125 111.089844 Z M 48.003906 95.519531 L 69.238281 95.519531 C 70.898438 95.519531 72.105469 95.144531 72.859375 94.394531 C 73.589844 93.660156 73.957031 92.464844 73.957031 90.808594 L 73.957031 74.191406 L 93.882812 47.234375 C 95.804688 44.53125 97.117188 42.175781 97.816406 40.171875 C 98.515625 38.164062 98.863281 35.15625 98.863281 31.140625 L 98.863281 6.019531 C 98.863281 4.363281 98.496094 3.15625 97.761719 2.40625 C 97.011719 1.675781 95.804688 1.308594 94.144531 1.308594 L 74.613281 1.308594 C 72.953125 1.308594 71.757812 1.675781 71.023438 2.40625 C 70.269531 3.15625 69.894531 4.363281 69.894531 6.019531 L 69.894531 27.476562 C 69.894531 28.351562 69.851562 29.265625 69.765625 30.226562 C 69.675781 31.183594 69.328125 32.101562 68.714844 32.972656 L 62.6875 42.394531 C 62.25 43.179688 61.792969 43.746094 61.324219 44.097656 C 60.832031 44.445312 60.238281 44.617188 59.539062 44.617188 L 58.230469 44.617188 C 57.53125 44.617188 56.945312 44.445312 56.472656 44.097656 C 55.984375 43.746094 55.519531 43.179688 55.082031 42.394531 L 49.054688 32.972656 C 48.441406 32.101562 48.089844 31.183594 48.003906 30.226562 C 47.917969 29.265625 47.875 28.351562 47.875 27.476562 L 47.875 6.019531 C 47.875 4.363281 47.507812 3.15625 46.773438 2.40625 C 46.019531 1.675781 44.816406 1.308594 43.152344 1.308594 L 22.96875 1.308594 C 21.308594 1.308594 20.109375 1.675781 19.375 2.40625 C 18.625 3.15625 18.25 4.363281 18.25 6.019531 L 18.25 31.140625 C 18.25 35.15625 18.582031 38.164062 19.246094 40.171875 C 19.890625 42.175781 21.21875 44.53125 23.230469 47.234375 L 43.285156 74.058594 L 43.285156 90.808594 C 43.285156 92.464844 43.660156 93.660156 44.414062 94.394531 C 45.148438 95.144531 46.34375 95.519531 48.003906 95.519531 Z M 60.195312 61.367188 L 59.277344 61.367188 L 59.277344 83.742188 L 57.964844 83.742188 L 57.964844 61.367188 L 56.65625 61.367188 C 54.734375 61.367188 53.011719 60.929688 51.492188 60.058594 C 49.953125 59.1875 48.484375 57.792969 47.085938 55.871094 L 34.371094 38.207031 C 33.410156 36.898438 32.84375 35.371094 32.667969 33.628906 C 32.492188 31.882812 32.40625 30.050781 32.40625 28.132812 L 32.40625 13.085938 L 33.714844 13.085938 L 33.714844 28.132812 C 33.714844 29.964844 33.804688 31.683594 33.976562 33.289062 C 34.152344 34.910156 34.675781 36.375 35.550781 37.683594 L 48.265625 55.347656 C 49.402344 57.09375 50.714844 58.316406 52.199219 59.011719 C 53.683594 59.710938 55.171875 60.058594 56.65625 60.058594 L 60.195312 60.058594 C 61.855469 60.058594 63.367188 59.683594 64.730469 58.933594 C 66.078125 58.199219 67.40625 57.007812 68.714844 55.347656 L 81.824219 37.683594 C 82.699219 36.550781 83.222656 35.128906 83.398438 33.417969 C 83.570312 31.726562 83.660156 29.964844 83.660156 28.132812 L 83.660156 13.085938 L 84.96875 13.085938 L 84.96875 28.132812 C 84.96875 30.050781 84.910156 31.855469 84.785156 33.550781 C 84.644531 35.257812 84.050781 36.8125 83.003906 38.207031 L 69.894531 55.871094 C 68.496094 57.792969 67.039062 59.1875 65.515625 60.058594 C 63.980469 60.929688 62.203125 61.367188 60.195312 61.367188 Z M 60.195312 61.367188 "/>
</g>
</g>
</svg>
